<svg id="Layer_1" data-name="Layer 1" xmlns="http://www.w3.org/2000/svg" xmlns:xlink="http://www.w3.org/1999/xlink" viewBox="0 0 1000 1600"><defs><style>.cls-1,.cls-3,.cls-6{fill:none;}.cls-2{clip-path:url(#clip-path);}.cls-3,.cls-6{stroke:#ff4a1a;stroke-miterlimit:10;}.cls-3{stroke-width:2px;}.cls-4{fill:#fff;}.cls-14,.cls-16,.cls-5,.cls-7,.cls-9{fill:#ff4a1a;}.cls-6{stroke-width:4px;}.cls-7,.cls-9{font-size:120px;font-family:RacingSansOne-Regular, Racing Sans One;}.cls-7{letter-spacing:-0.01em;}.cls-8{letter-spacing:0em;}.cls-10{letter-spacing:-0.03em;}.cls-11{letter-spacing:0em;}.cls-12{letter-spacing:-0.03em;}.cls-13{letter-spacing:-0.01em;}.cls-14{font-size:40px;}.cls-14,.cls-16{font-family:RobotoCondensed-Bold, Roboto Condensed;font-weight:700;}.cls-15{letter-spacing:-0.06em;}.cls-16{font-size:28px;}.cls-17{letter-spacing:-0.01em;}.cls-18{letter-spacing:-0.03em;}.cls-19{letter-spacing:-0.01em;}</style><clipPath id="clip-path"><rect class="cls-1" width="1000.05" height="1600"/></clipPath></defs><g class="cls-2"><line class="cls-3" x1="-908.21" y1="682.12" x2="523.15" y2="2113.48"/><line class="cls-3" x1="-900.98" y1="674.9" x2="530.38" y2="2106.26"/><line class="cls-3" x1="-893.76" y1="667.67" x2="537.6" y2="2099.03"/><line class="cls-3" x1="-886.53" y1="660.45" x2="544.83" y2="2091.81"/><line class="cls-3" x1="-879.31" y1="653.22" x2="552.05" y2="2084.58"/><line class="cls-3" x1="-872.08" y1="645.99" x2="559.28" y2="2077.35"/><line class="cls-3" x1="-864.85" y1="638.77" x2="566.51" y2="2070.13"/><line class="cls-3" x1="-857.63" y1="631.54" x2="573.73" y2="2062.9"/><line class="cls-3" x1="-850.4" y1="624.32" x2="580.96" y2="2055.68"/><line class="cls-3" x1="-843.18" y1="617.09" x2="588.18" y2="2048.45"/><line class="cls-3" x1="-835.95" y1="609.87" x2="595.41" y2="2041.23"/><line class="cls-3" x1="-828.73" y1="602.64" x2="602.63" y2="2034"/><line class="cls-3" x1="-821.5" y1="595.41" x2="609.86" y2="2026.77"/><line class="cls-3" x1="-814.27" y1="588.19" x2="617.09" y2="2019.55"/><line class="cls-3" x1="-807.05" y1="580.96" x2="624.31" y2="2012.32"/><line class="cls-3" x1="-799.82" y1="573.74" x2="631.54" y2="2005.1"/><line class="cls-3" x1="-792.6" y1="566.51" x2="638.76" y2="1997.87"/><line class="cls-3" x1="-785.37" y1="559.29" x2="645.99" y2="1990.65"/><line class="cls-3" x1="-778.15" y1="552.06" x2="653.22" y2="1983.42"/><line class="cls-3" x1="-770.92" y1="544.83" x2="660.44" y2="1976.19"/><line class="cls-3" x1="-763.69" y1="537.61" x2="667.67" y2="1968.97"/><line class="cls-3" x1="-756.47" y1="530.38" x2="674.89" y2="1961.74"/><line class="cls-3" x1="-749.24" y1="523.16" x2="682.12" y2="1954.52"/><line class="cls-3" x1="-742.02" y1="515.93" x2="689.34" y2="1947.29"/><line class="cls-3" x1="-734.79" y1="508.71" x2="696.57" y2="1940.07"/><line class="cls-3" x1="-727.57" y1="501.48" x2="703.8" y2="1932.84"/><line class="cls-3" x1="-720.34" y1="494.25" x2="711.02" y2="1925.61"/><line class="cls-3" x1="-713.11" y1="487.03" x2="718.25" y2="1918.39"/><line class="cls-3" x1="-705.89" y1="479.8" x2="725.47" y2="1911.16"/><line class="cls-3" x1="-698.66" y1="472.58" x2="732.7" y2="1903.94"/><line class="cls-3" x1="-691.44" y1="465.35" x2="739.92" y2="1896.71"/><line class="cls-3" x1="-684.21" y1="458.13" x2="747.15" y2="1889.49"/><line class="cls-3" x1="-676.99" y1="450.9" x2="754.38" y2="1882.26"/><line class="cls-3" x1="-669.76" y1="443.67" x2="761.6" y2="1875.03"/><line class="cls-3" x1="-662.53" y1="436.45" x2="768.83" y2="1867.81"/><line class="cls-3" x1="-655.31" y1="429.22" x2="776.05" y2="1860.58"/><line class="cls-3" x1="-648.08" y1="422" x2="783.28" y2="1853.36"/><line class="cls-3" x1="-640.86" y1="414.77" x2="790.5" y2="1846.13"/><line class="cls-3" x1="-633.63" y1="407.55" x2="797.73" y2="1838.91"/><line class="cls-3" x1="-626.41" y1="400.32" x2="804.96" y2="1831.68"/><line class="cls-3" x1="-619.18" y1="393.09" x2="812.18" y2="1824.45"/><line class="cls-3" x1="-611.95" y1="385.87" x2="819.41" y2="1817.23"/><line class="cls-3" x1="-604.73" y1="378.64" x2="826.63" y2="1810"/><line class="cls-3" x1="-597.5" y1="371.42" x2="833.86" y2="1802.78"/><line class="cls-3" x1="-590.28" y1="364.19" x2="841.08" y2="1795.55"/><line class="cls-3" x1="-583.05" y1="356.96" x2="848.31" y2="1788.33"/><line class="cls-3" x1="-575.82" y1="349.74" x2="855.54" y2="1781.1"/><line class="cls-3" x1="-568.6" y1="342.51" x2="862.76" y2="1773.87"/><line class="cls-3" x1="-561.37" y1="335.29" x2="869.99" y2="1766.65"/><line class="cls-3" x1="-554.15" y1="328.06" x2="877.21" y2="1759.42"/><line class="cls-3" x1="-546.92" y1="320.84" x2="884.44" y2="1752.2"/><line class="cls-3" x1="-539.7" y1="313.61" x2="891.66" y2="1744.97"/><line class="cls-3" x1="-532.47" y1="306.38" x2="898.89" y2="1737.75"/><line class="cls-3" x1="-525.24" y1="299.16" x2="906.12" y2="1730.52"/><line class="cls-3" x1="-518.02" y1="291.93" x2="913.34" y2="1723.29"/><line class="cls-3" x1="-510.79" y1="284.71" x2="920.57" y2="1716.07"/><line class="cls-3" x1="-503.57" y1="277.48" x2="927.79" y2="1708.84"/><line class="cls-3" x1="-496.34" y1="270.26" x2="935.02" y2="1701.62"/><line class="cls-3" x1="-489.12" y1="263.03" x2="942.24" y2="1694.39"/><line class="cls-3" x1="-481.89" y1="255.8" x2="949.47" y2="1687.17"/><line class="cls-3" x1="-474.66" y1="248.58" x2="956.7" y2="1679.94"/><line class="cls-3" x1="-467.44" y1="241.35" x2="963.92" y2="1672.71"/><line class="cls-3" x1="-460.21" y1="234.13" x2="971.15" y2="1665.49"/><line class="cls-3" x1="-452.99" y1="226.9" x2="978.37" y2="1658.26"/><line class="cls-3" x1="-445.76" y1="219.68" x2="985.6" y2="1651.04"/><line class="cls-3" x1="-438.54" y1="212.45" x2="992.82" y2="1643.81"/><line class="cls-3" x1="-431.31" y1="205.22" x2="1000.05" y2="1636.59"/><line class="cls-3" x1="-424.08" y1="198" x2="1007.28" y2="1629.36"/><line class="cls-3" x1="-416.86" y1="190.77" x2="1014.5" y2="1622.13"/><line class="cls-3" x1="-409.63" y1="183.55" x2="1021.73" y2="1614.91"/><line class="cls-3" x1="-402.41" y1="176.32" x2="1028.95" y2="1607.68"/><line class="cls-3" x1="-395.18" y1="169.1" x2="1036.18" y2="1600.46"/><line class="cls-3" x1="-387.96" y1="161.87" x2="1043.4" y2="1593.23"/><line class="cls-3" x1="-380.73" y1="154.64" x2="1050.63" y2="1586"/><line class="cls-3" x1="-373.5" y1="147.42" x2="1057.86" y2="1578.78"/><line class="cls-3" x1="-366.28" y1="140.19" x2="1065.08" y2="1571.55"/><line class="cls-3" x1="-359.05" y1="132.97" x2="1072.31" y2="1564.33"/><line class="cls-3" x1="-351.83" y1="125.74" x2="1079.53" y2="1557.1"/><line class="cls-3" x1="-344.6" y1="118.52" x2="1086.76" y2="1549.88"/><line class="cls-3" x1="-337.38" y1="111.29" x2="1093.99" y2="1542.65"/><line class="cls-3" x1="-330.15" y1="104.06" x2="1101.21" y2="1535.42"/><line class="cls-3" x1="-322.92" y1="96.84" x2="1108.44" y2="1528.2"/><line class="cls-3" x1="-315.7" y1="89.61" x2="1115.66" y2="1520.97"/><line class="cls-3" x1="-308.47" y1="82.39" x2="1122.89" y2="1513.75"/><line class="cls-3" x1="-301.25" y1="75.16" x2="1130.11" y2="1506.52"/><line class="cls-3" x1="-294.02" y1="67.94" x2="1137.34" y2="1499.3"/><line class="cls-3" x1="-286.8" y1="60.71" x2="1144.57" y2="1492.07"/><line class="cls-3" x1="-279.57" y1="53.48" x2="1151.79" y2="1484.84"/><line class="cls-3" x1="-272.34" y1="46.26" x2="1159.02" y2="1477.62"/><line class="cls-3" x1="-265.12" y1="39.03" x2="1166.24" y2="1470.39"/><line class="cls-3" x1="-257.89" y1="31.81" x2="1173.47" y2="1463.17"/><line class="cls-3" x1="-250.67" y1="24.58" x2="1180.69" y2="1455.94"/><line class="cls-3" x1="-243.44" y1="17.36" x2="1187.92" y2="1448.72"/><line class="cls-3" x1="-236.22" y1="10.13" x2="1195.15" y2="1441.49"/><line class="cls-3" x1="-228.99" y1="2.9" x2="1202.37" y2="1434.26"/><line class="cls-3" x1="-221.76" y1="-4.32" x2="1209.6" y2="1427.04"/><line class="cls-3" x1="-214.54" y1="-11.55" x2="1216.82" y2="1419.81"/><line class="cls-3" x1="-207.31" y1="-18.77" x2="1224.05" y2="1412.59"/><line class="cls-3" x1="-200.09" y1="-26" x2="1231.27" y2="1405.36"/><line class="cls-3" x1="-192.86" y1="-33.22" x2="1238.5" y2="1398.14"/><line class="cls-3" x1="-185.64" y1="-40.45" x2="1245.73" y2="1390.91"/><line class="cls-3" x1="-178.41" y1="-47.68" x2="1252.95" y2="1383.68"/><line class="cls-3" x1="-171.18" y1="-54.9" x2="1260.18" y2="1376.46"/><line class="cls-3" x1="-163.96" y1="-62.13" x2="1267.4" y2="1369.23"/><line class="cls-3" x1="-156.73" y1="-69.35" x2="1274.63" y2="1362.01"/><line class="cls-3" x1="-149.51" y1="-76.58" x2="1281.85" y2="1354.78"/><line class="cls-3" x1="-142.28" y1="-83.81" x2="1289.08" y2="1347.56"/><line class="cls-3" x1="-135.05" y1="-91.03" x2="1296.31" y2="1340.33"/><line class="cls-3" x1="-127.83" y1="-98.26" x2="1303.53" y2="1333.1"/><line class="cls-3" x1="-120.6" y1="-105.48" x2="1310.76" y2="1325.88"/><line class="cls-3" x1="-113.38" y1="-112.71" x2="1317.98" y2="1318.65"/><line class="cls-3" x1="-106.15" y1="-119.93" x2="1325.21" y2="1311.43"/><line class="cls-3" x1="-98.93" y1="-127.16" x2="1332.43" y2="1304.2"/><line class="cls-3" x1="-91.7" y1="-134.39" x2="1339.66" y2="1296.98"/><line class="cls-3" x1="-84.47" y1="-141.61" x2="1346.89" y2="1289.75"/><line class="cls-3" x1="-77.25" y1="-148.84" x2="1354.11" y2="1282.52"/><line class="cls-3" x1="-70.02" y1="-156.06" x2="1361.34" y2="1275.3"/><line class="cls-3" x1="-62.8" y1="-163.29" x2="1368.56" y2="1268.07"/><line class="cls-3" x1="-55.57" y1="-170.51" x2="1375.79" y2="1260.85"/><line class="cls-3" x1="-48.35" y1="-177.74" x2="1383.01" y2="1253.62"/><line class="cls-3" x1="-41.12" y1="-184.97" x2="1390.24" y2="1246.4"/><line class="cls-3" x1="-33.89" y1="-192.19" x2="1397.47" y2="1239.17"/><line class="cls-3" x1="-26.67" y1="-199.42" x2="1404.69" y2="1231.94"/><line class="cls-3" x1="-19.44" y1="-206.64" x2="1411.92" y2="1224.72"/><line class="cls-3" x1="-12.22" y1="-213.87" x2="1419.14" y2="1217.49"/><line class="cls-3" x1="-4.99" y1="-221.09" x2="1426.37" y2="1210.27"/><line class="cls-3" x1="2.23" y1="-228.32" x2="1433.59" y2="1203.04"/><line class="cls-3" x1="9.46" y1="-235.55" x2="1440.82" y2="1195.82"/><line class="cls-3" x1="16.69" y1="-242.77" x2="1448.05" y2="1188.59"/><line class="cls-3" x1="23.91" y1="-250" x2="1455.27" y2="1181.36"/><line class="cls-3" x1="31.14" y1="-257.22" x2="1462.5" y2="1174.14"/><line class="cls-3" x1="38.36" y1="-264.45" x2="1469.72" y2="1166.91"/><line class="cls-3" x1="45.59" y1="-271.67" x2="1476.95" y2="1159.69"/><line class="cls-3" x1="52.81" y1="-278.9" x2="1484.17" y2="1152.46"/><line class="cls-3" x1="60.04" y1="-286.13" x2="1491.4" y2="1145.23"/><line class="cls-3" x1="72.95" y1="-287.67" x2="1504.31" y2="1143.69"/><line class="cls-3" x1="74.49" y1="-300.58" x2="1505.85" y2="1130.78"/><line class="cls-3" x1="81.72" y1="-307.8" x2="1513.08" y2="1123.56"/><line class="cls-3" x1="88.94" y1="-315.03" x2="1520.3" y2="1116.33"/><line class="cls-3" x1="96.17" y1="-322.25" x2="1527.53" y2="1109.11"/><line class="cls-3" x1="103.39" y1="-329.48" x2="1534.75" y2="1101.88"/><line class="cls-3" x1="110.62" y1="-336.71" x2="1541.98" y2="1094.65"/><line class="cls-3" x1="117.85" y1="-343.93" x2="1549.21" y2="1087.43"/><line class="cls-3" x1="125.07" y1="-351.16" x2="1556.43" y2="1080.2"/><line class="cls-3" x1="132.3" y1="-358.38" x2="1563.66" y2="1072.98"/><line class="cls-3" x1="139.52" y1="-365.61" x2="1570.88" y2="1065.75"/><line class="cls-3" x1="146.75" y1="-372.83" x2="1578.11" y2="1058.53"/><line class="cls-3" x1="153.97" y1="-380.06" x2="1585.34" y2="1051.3"/><line class="cls-3" x1="161.2" y1="-387.29" x2="1592.56" y2="1044.07"/><line class="cls-3" x1="168.43" y1="-394.51" x2="1599.79" y2="1036.85"/><line class="cls-3" x1="175.65" y1="-401.74" x2="1607.01" y2="1029.62"/><line class="cls-3" x1="182.88" y1="-408.96" x2="1614.24" y2="1022.4"/><line class="cls-3" x1="190.1" y1="-416.19" x2="1621.46" y2="1015.17"/><line class="cls-3" x1="197.33" y1="-423.41" x2="1628.69" y2="1007.95"/><line class="cls-3" x1="204.55" y1="-430.64" x2="1635.92" y2="1000.72"/><line class="cls-3" x1="211.78" y1="-437.87" x2="1643.14" y2="993.49"/><line class="cls-3" x1="219.01" y1="-445.09" x2="1650.37" y2="986.27"/><line class="cls-3" x1="226.23" y1="-452.32" x2="1657.59" y2="979.04"/><line class="cls-3" x1="233.46" y1="-459.54" x2="1664.82" y2="971.82"/><line class="cls-3" x1="240.68" y1="-466.77" x2="1672.04" y2="964.59"/><line class="cls-3" x1="247.91" y1="-473.99" x2="1679.27" y2="957.37"/><line class="cls-3" x1="255.13" y1="-481.22" x2="1686.5" y2="950.14"/><line class="cls-3" x1="262.36" y1="-488.45" x2="1693.72" y2="942.91"/><line class="cls-3" x1="269.59" y1="-495.67" x2="1700.95" y2="935.69"/><line class="cls-3" x1="276.81" y1="-502.9" x2="1708.17" y2="928.46"/><line class="cls-3" x1="284.04" y1="-510.12" x2="1715.4" y2="921.24"/><line class="cls-3" x1="291.26" y1="-517.35" x2="1722.62" y2="914.01"/><line class="cls-3" x1="298.49" y1="-524.57" x2="1729.85" y2="906.79"/><line class="cls-3" x1="305.71" y1="-531.8" x2="1737.08" y2="899.56"/><line class="cls-3" x1="312.94" y1="-539.03" x2="1744.3" y2="892.33"/><line class="cls-3" x1="320.17" y1="-546.25" x2="1751.53" y2="885.11"/><line class="cls-3" x1="327.39" y1="-553.48" x2="1758.75" y2="877.88"/><line class="cls-3" x1="334.62" y1="-560.7" x2="1765.98" y2="870.66"/><line class="cls-3" x1="341.84" y1="-567.93" x2="1773.2" y2="863.43"/><line class="cls-3" x1="349.07" y1="-575.16" x2="1780.43" y2="856.21"/><line class="cls-3" x1="356.3" y1="-582.38" x2="1787.66" y2="848.98"/><line class="cls-3" x1="363.52" y1="-589.61" x2="1794.88" y2="841.75"/><line class="cls-3" x1="370.75" y1="-596.83" x2="1802.11" y2="834.53"/><line class="cls-3" x1="377.97" y1="-604.06" x2="1809.33" y2="827.3"/><line class="cls-3" x1="385.2" y1="-611.28" x2="1816.56" y2="820.08"/><line class="cls-3" x1="392.42" y1="-618.51" x2="1823.78" y2="812.85"/><line class="cls-3" x1="399.65" y1="-625.74" x2="1831.01" y2="805.63"/></g><path class="cls-4" d="M96.18,24.59s-35,87.58-9.12,87.24c17.88-.24,96.68-22,111.15-24,10.69-1.51,20.22,11.43,26.88,22.32,10.13,16.55-31.47,76.19-47.13,89.68-16.81,14.48-22.45,31.84-12.6,46,6.09,8.77,30.64-10,53.79,14.23,17.89,18.68,39.57-16.18,50.72,0,18.27,26.49-14.3,104.27,6.13,96.73,6-2.22,47.11,17.27,79.66,12.12,22.45-3.56,33-30.87,57-36.2,34.45-7.64,66.22-32.92,80.84-45.76,14-12.26-25.93-46.28-47.32-39.49-35.4,11.23-67.56,1.22-59.44-23.83,13-40,172.38-111.84,194.3-118.82C594.14,100.68,654,87,663.06,97c6.14,6.78-48.51,36.77-49.06,55.2-2.5,82.42,33.08-15.83,32.21,12.21-.47,15.33,8.54,74.51-6,107.91-12,27.65-56,49.65-38.8,60.26,37.86,23.41,217.28-70.07,261.78-86.74,21-7.85,23.49,24.78,31.66,39.42,15.88,28.43,5.58,71.74-17.36,104.34-12.72,18.07-32.67,70-36.76,83.74-16.25,54.7-.77,72,52.08,35.86,27.21-18.61,62.81-24.82,85.8-64.61,16.71-28.92-8.18-420-8.18-420Z"/><path class="cls-4" d="M107,622.52c51.22-67.75,145-204.89,229.45-140.91,51.06,38.7,92.92,35.63,130.29,18.16,64.49-30.16,119.47-51.77,121.73-49.13,11.56,13.45-23.25,31.63-48.86,65.62-9.59,12.73,8.4,43.6,2.18,55.08-15,27.71-45.65,31-37.06,34.78,21.63,9.59,114.38,5.77,114.38,5.77s20.67,59.65-28.82,97.9c-24.83,19.19-52.43,35.51-91.6,23.59-36-11-25.73-47.09-69.94-22.07S239.51,876.05,166.07,874.86c-83.45-1.34,40.75-134.21-59.53-128.24S107,622.52,107,622.52Z"/><path class="cls-4" d="M515.78,637.28c-33,12.25-56.94,48.51-58,61.27-1.34,16.23,24.31,38.27,71.37,37.79s85.64-63.06,94.15-69,99.86-53.62,99.5-56.72S515.78,637.28,515.78,637.28Z"/><path class="cls-4" d="M35,1205.87c7.55-14.62,65.21-94.73,84.45-117.53,29.12-34.52,44.66-5.06,58.53-18.81C252,996.14,310.9,968,302.2,1025.45c-6.36,42-55.44,133.68-7.41,128.77,33.67-3.45,120.89-65.83,215.76-73.71,9.75-.81,51.3-55.07,60.94-53.79,30.35,4,37.45,38.78,63.84,71.72,116.32,145.23,209.14,93.63,231.93,73,55.21-50.05,117.28-99.49,116.14.53-.88,77.12-2.16,204.48-97.45,278.28-10.83,8.39-43.19-27.24-56-20.37-20.74,11.07-42.35,62.73-68.93,68.83-188,43.18-197.49-208.55-310.89-105.91-22.24,20.13-72.32,26.82-116.21,42.12-12.58,4.39-24.65,41.7-35.41,40.6-30.79-3.16-37.53-36-39.83-66-1.1-14.31-16.09-23.58-27.55-21.57-43.21,7.57-103.27,200.21-156.59,190.25S28.36,1532,27.32,1458.68c-.84-59-23.52-175.85-23.52-175.85S19.4,1236,35,1205.87Z"/><path class="cls-4" d="M894.64,736.35c-21,38.53-26.83,54.74-49.44,83-11.18,14-41,7-55,14.82-12.41,7-34.2,26.38-43.73,50.89-24.53,63.06-68.23,98-61.19,115,13,31.19,128.42,27.38,99.66,45-18.31,11.22-145.47,35.06-88.87,70.72,30.4,19.16,105.86,15.69,171.09-10.36,20.44-8.17,33.13-36.54,49.86-49.14,29.26-22,57-32.88,60.6-68.47C985.94,905.78,894.64,736.35,894.64,736.35Z"/><path class="cls-4" d="M363.53,1578.13s17.38-90,72.47-89.62,139.34,84.66,139.34,84.66Z"/><path class="cls-4" d="M601.59,615.48c14.77-31.22-19.93-31.35-3.38-48.57,53.11-55.25,140.45-88.68,133.25-58.2-9.33,39.45,70.95-2.42,76.08,20.43S601.59,615.48,601.59,615.48Z"/><path class="cls-4" d="M584.43,985.45c14.62,1.34,63.79-46.37,74.76-51,17.13-7.25,39.5-17.31,7.31-44.49-22.8-19.26-76.22-56.65-56.1-85.18,9.11-12.92,27.47,11.23,36,33.36,26,67.65,44.77-67.67,61.28-79.27C750.1,729,795,750.13,800.35,705.71c.76-6.18-7.74-17.53-13.67-19.53-28.94-9.72-50.32-22.54-82.37-16.73-32.56,5.89-65.4,27.19-85.95,49.49-88.59,96.15-176.53,134.57-218.89,141.12-29.11,4.49-47.25,29.85-56.74,47-6.37,11.46-16.63,40.4-9.73,48.07,7.66,8.52,33.81-5.19,53-13.27,18.3-7.7,23.12,7.68,26.58,13.65,8.47,14.62,51-18.11,72.79-16.4C529.68,942.54,573.12,984.41,584.43,985.45Z"/><path class="cls-4" d="M838.84,608.28C804,633.93,759.58,673.54,841,653.79s51.91-49.25,76.71-53.36,31.91,3,37.07-20.73c3.14-14.44-42.59-33.05-74.51-22.08C859.7,564.68,855.15,596.29,838.84,608.28Z"/><path class="cls-4" d="M781.77,313.53c13-1,53.89-13.78,59.51,0s-11.24,35.75-4.6,55.41-5.38,80.76-19.63,62.55-7.23-32.21-22.1-36.57-68-17.63-66-21.13S781.77,313.53,781.77,313.53Z"/><path class="cls-4" d="M380.3,406.41c-8.47,2.79-47.49,2.42-50.89,13.47s3.48,17.93,28.14,13.69c12.56-2.16,36.41,2.6,50.12-7.69,24.94-18.72,77.5-82.08,75.95-86.1-6.19-16.1-82.68,40.61-92.39,40.76C368,380.88,388,403.89,380.3,406.41Z"/><path class="cls-5" d="M484.68,562.41c-4.19.61-36.6,9.07-39.88,50.22s19.92,72.61,23.49,71.43,21-17.31,42.24-24.28,43.33-4.35,48.83-5.67.2-49-20.51-72.9S500.74,560.1,484.68,562.41Z"/><path class="cls-5" d="M461.4,677.47s13.2,25.79,25.52,30.89,31,12.31,33.69,10.69.93-5.46-2.54-7.42-2.65-2.64-2.92-4.47a72.09,72.09,0,0,0-2.4-10.51c-1.18-3.57-16.93-1.11-22.27-3.81s-10.55-13.44,7.25-27.66Z"/><path class="cls-5" d="M531.9,688.7c-2.33,1.2-6.7,6.7-3.47,6.94s10.44-3.81,14.3-7.3,8.12-14.24,4-11S538.86,685.11,531.9,688.7Z"/><path class="cls-5" d="M517.35,719.07a19.48,19.48,0,0,0,17.87-6.74c5.16-6.07,13.12-19.35,12.28-20.18s-5.32,7.92-9.12,10.6c-2.88,2-9.68,3.76-10.76,6.14-1.19,2.62-2.19,3.81-3.28,4.11-3.42.94-5.3-1-7.78-2.12C514.42,710,517.35,719.07,517.35,719.07Z"/><path class="cls-5" d="M456,647.31c-65.52,51.23-74.49,64.55-57.84,81.35s80.51-16.19,97-21.62C470.41,704.88,456,647.31,456,647.31Z"/><path class="cls-5" d="M451.91,737.49c5.78,5.52,39.23,33,52.92,26.55s30.09-18.3,37.68-20.8,41.62-2.8,48.94-12.14,14.53-28,14.53-28,3.34.59,2.45,4.55c-1.78,7.88-1.26,23.47-6.45,29.92-6.1,7.58-49.76,48.54-65.67,47.1-8.6-.78-42.74-1.87-51.84-6.3-4.54-2.21-34.73-28.6-34.73-28.6Z"/><path class="cls-5" d="M605.67,729.15s3.83,81.73,3.79,100.29c0,13.19,13.21,19.55,12.53,62.17-.14,8.95,3.68,37.61,6.48,48.07s-19.78-5.87-19.78-5.87a462,462,0,0,0-19.35-65.95c-7-18.19-30.64-55.86-34.75-66.87s-21.17-16.65-21.17-16.65l40-31Z"/><path class="cls-5" d="M609.92,925.43s-6.57,26.28-2.15,34.1S616,981.68,621.11,980s2.78-5,4.11-8c1.82-4.06,7-9.69,6.69-14.07-.38-4.78-7.67-42-7.67-42Z"/><path class="cls-5" d="M401.12,695.94s-95,85.75-118.27,108.37c-19.4,18.83-50.1,20-136.91,97.5-29.48,26.31,9.28,26.1,27.49,11.36,23.47-19,112.62-58,131.14-71.28,23.06-16.49,144-87.39,144-87.39l20.62-36.89-50.05,6Z"/><path class="cls-4" d="M506.54,661.21c5.25-2.68.54-15.12-2.32-23.1-3-8.31-28-67.23-28-67.23s5-3.51,5.68,1.85,30.09,75.92,31.15,78.8c2.49,6.78,8.07,5.51,8.07,5.51Z"/><path class="cls-5" d="M160.14,889.39c-10.75,13.44-39.24,22.46-47.75,30.89s-12.51,13-8.59,13.21,7.49-4.83,7.49-4.83-15.87,18.68-18.37,23.71c-2.36,4.74-1.38,7.71-.42,7.52,0,0-6.91,7.77-4.54,10s13.26-3.17,16.92-7.94,12.37-11.77,12.37-11.77-2.4,7-3.31,10.87c-1,4.37-2.27,12.32,1,11.26s7.6-12.88,9.9-19.28,15.3-20.45,17.3-20.22.3,7.62-2.31,15.59-2.8,15.75-.55,15.9,6.77-8.75,9-12.75,7-17.71,12.87-25.29a115.29,115.29,0,0,1,13.73-14.31Z"/><path class="cls-5" d="M545.68,617.79c25.67-7.7,75.67-12.66,85.06,3.65,12.11,21-63.74,54.41-67.36,50.15s-4.16-37.47-17.76-38.19S545.68,617.79,545.68,617.79Z"/><path class="cls-5" d="M569.64,612.58S743.3,561.41,748,573.07s-1.45,34.34-20.07,40.47-131.47,46.07-131.47,46.07Z"/><path class="cls-5" d="M705,577c21.08-16.94,143.21-78.51,157.38-87.55s28.83-6.14,18.49,9.3S772.8,579.14,743.06,605.1c-14.33,12.5-63.89,21-63.89,21Z"/><path class="cls-5" d="M856.79,493.9c5.53-4.52,11.81-45.13,14.67-48.22s3.6,4.41,3.82,5.09.5,4.46.5,4.46,6.65-9.5,8.83-12.37,5.23-8.92,7.59-9.91,3.72-.15,4.07.6,3-2.18,4.28-3.64c1.55-1.77,7.06-1.36,4.31,3-4.89,7.68-9.48,12.36-11.3,16s.84,1.47.84,1.47,9.62-7.92,11.13-7.88a2.46,2.46,0,0,1,1.6,3.88c-1.14,1.77-7.63,11.11-11,15.55s-8.45,14.82-6.39,15.86,6.62,1.1,10.42-4.34,7.6-11.15,9.05-11.3,4.48-.8,1.07,6.52-5.88,17.31-7.79,19.76c-5.37,6.26-32.62,20.86-32.62,20.86Z"/><path class="cls-6" d="M296.2,39.91c31.63,95,170,502.79,181.15,527"/><path class="cls-6" d="M802.4,1429.85c25.16,66.34,41.53,111.31,53.69,148.28"/><path class="cls-6" d="M619.2,962.08s15,37.35,37.61,94.25"/><text class="cls-7" transform="translate(102.1 1193.23)">S<tspan class="cls-8" x="69.12" y="0">tring</tspan></text><text class="cls-9" transform="translate(116.15 1282.96)"><tspan class="cls-10">W</tspan><tspan class="cls-11" x="110.16" y="0">al</tspan><tspan class="cls-12" x="211.56" y="0">k</tspan><tspan x="280.2" y="0">e</tspan><tspan class="cls-13" x="345.84" y="0">r</tspan></text><path class="cls-5" d="M27.32,217.2s117.16,225.12,175,251.88c41,19,105.1,42.95,122.82,67.43,7.29,10.06,2.38,27.56-8.32,33.24-36.73,19.53-131,47.36-114.5,107s-175,246.45-175,246.45Z"/><path class="cls-5" d="M977.62,545.36S747.35,682.21,739.11,705.69C705.29,802,969.49,754.92,901.53,827.64c-64.42,68.93,72,144.71,72,144.71Z"/><text class="cls-14" transform="translate(696.84 217.2)">DEPTH</text><text class="cls-14" transform="translate(200.01 217.2)">R<tspan class="cls-15" x="22.15" y="0">A</tspan><tspan x="43.69" y="0">TE</tspan></text><text class="cls-14" transform="translate(704.31 1117.18)">MODE</text><line class="cls-6" x1="560.48" y1="1216.67" x2="661.3" y2="1216.67"/><line class="cls-6" x1="581.48" y1="1315.5" x2="673.54" y2="1262.35"/><line class="cls-6" x1="653.81" y1="1387.88" x2="706.98" y2="1295.78"/><line class="cls-6" x1="752.66" y1="1408.78" x2="752.66" y2="1308.02"/><line class="cls-6" x1="844.27" y1="1375.35" x2="798.33" y2="1295.78"/><line class="cls-6" x1="902.75" y1="1303.32" x2="831.77" y2="1262.35"/><text class="cls-16" transform="matrix(0.97, 0.25, -0.25, 0.97, 577.71, 1180.96)">Random</text><text class="cls-16" transform="matrix(0.96, -0.27, 0.27, 0.96, 588.45, 1271.9)">Squa<tspan class="cls-17" x="56" y="0">r</tspan><tspan x="65.02" y="0">e</tspan></text><text class="cls-16" transform="translate(626.84 1355.96) rotate(-45.7)"><tspan class="cls-18">T</tspan><tspan x="14.31" y="0">riangle</tspan></text><text class="cls-16" transform="matrix(0.25, -0.97, 0.97, 0.25, 724.84, 1361.02)">Sine</text><text class="cls-16" transform="matrix(0.27, 0.96, -0.96, 0.27, 771.66, 1312.51)">Env D</text><text class="cls-16" transform="matrix(0.72, 0.7, -0.7, 0.72, 817.05, 1290.13)">Env P</text><text class="cls-16" transform="translate(845.2 1248.2) rotate(14.3)">Env R</text><path class="cls-6" d="M673.54,1171l-79.46-45.88A179.15,179.15,0,1,0,918.25,1230.3q0-6.88-.51-13.63H844"/><path class="cls-5" d="M737.27,914.23a6.67,6.67,0,0,1,6.67,6.66v72.55a6.67,6.67,0,0,1-6.67,6.66h-19.6a6.66,6.66,0,0,1-6.67-6.66V920.89a6.66,6.66,0,0,1,6.67-6.66h19.6m0-4h-19.6A10.67,10.67,0,0,0,707,920.89v72.55a10.67,10.67,0,0,0,10.67,10.66h19.6a10.68,10.68,0,0,0,10.67-10.66V920.89a10.68,10.68,0,0,0-10.67-10.66Z"/><rect class="cls-5" x="711" y="914.23" width="32.94" height="85.88" rx="6.67"/><rect class="cls-4" x="711.09" y="965.53" width="32.94" height="34.49" rx="6.67"/><line class="cls-6" x1="711" y1="972.77" x2="744.02" y2="972.77"/><line class="cls-6" x1="711" y1="982.77" x2="744.02" y2="982.77"/><line class="cls-6" x1="711" y1="992.77" x2="744.02" y2="992.77"/><text class="cls-16" transform="translate(760.7 933.78)">Vib<tspan class="cls-19" x="37.11" y="0">r</tspan><tspan x="45.98" y="0">a</tspan><tspan class="cls-19" x="59.16" y="0">t</tspan><tspan x="67.35" y="0">o</tspan></text><text class="cls-16" transform="translate(760.7 966.8)">Chorus</text><text class="cls-16" transform="translate(760.7 999.82)"><tspan class="cls-18">T</tspan><tspan class="cls-17" x="14.31" y="0">r</tspan><tspan x="23.34" y="0">emolo</tspan></text><path class="cls-4" d="M355.75,1093.44c25.94-3,74.74-26.42,94.34-35.71s4.62-38.74-4.14-33-44.55,27.71-59.43,27.27-21.12-35.56-34-19.58-38.86,45.68-30.73,56S355.75,1093.44,355.75,1093.44Z"/><path class="cls-4" d="M523.45,1493.18c-1.47,17.81,36.16,40.2,51.54,40.38,18,.22,48.59,2,41.32-5.32s-25-18.7-37.55-27.19-33.29-64.36-39-49.41,7,43.95,2.56,45.92S524.55,1479.83,523.45,1493.18Z"/><path class="cls-4" d="M632.34,493.79c14.58,14.57,69.87-23.05,91.37-20.13s29.4-3.62,41.64-20.28,22.7-45.17,9.42-40.4-23.83,31.62-43.23,33.68-4.49-31.58-32.8-16.54-57.19,43.23-59.8,48.22S630.3,491.74,632.34,493.79Z"/><path class="cls-4" d="M469.44,1436c-28.88-14.55-41.49,4.23-51.53,8.65s-40.69,27.41-9.6,19.3,35.32-12.85,46.41-6.58,32.9,14,45.31,8.3S475,1438.8,469.44,1436Z"/><path class="cls-4" d="M495.38,1406.49c2.73-10,18.2,3.76,24.59,10.14s-3,32-10.1,24.9S493.65,1412.81,495.38,1406.49Z"/><path class="cls-4" d="M296.2,398c12.54-12.56,38.52-9.94,37.75-5.6s-26.29,32.93-34.46,27.83S289,405.26,296.2,398Z"/><path class="cls-4" d="M762.87,489c-2.89,9.86,5.79,20.25,27.91,13.46S823.59,463,813.3,467.13s-23,17.39-27.64,18.45S764.51,483.35,762.87,489Z"/><path class="cls-5" d="M0,0V1600H1000V0ZM959.94,1512.09a47.79,47.79,0,0,1-47.79,47.78H87.72a47.78,47.78,0,0,1-47.78-47.78V87.66A47.79,47.79,0,0,1,87.72,39.87H912.15a47.79,47.79,0,0,1,47.79,47.79Z"/></svg>