<svg xmlns="http://www.w3.org/2000/svg" xmlns:xlink="http://www.w3.org/1999/xlink" viewBox="0 0 146 151"><defs><style>.cls-1,.cls-3{fill:none;}.cls-2{clip-path:url(#clip-path);}.cls-3{stroke:#ff4a1a;stroke-miterlimit:10;stroke-width:2px;}.cls-4{fill:#0b060a;}.cls-5{fill:#fff;}</style><clipPath id="clip-path"><rect class="cls-1" x="-1169" y="-419" width="1000.05" height="1600"/></clipPath></defs><g id="Layer_1" data-name="Layer 1"><g class="cls-2"><line class="cls-3" x1="-1426.89" y1="-387.19" x2="4.47" y2="1044.17"/><line class="cls-3" x1="-1419.67" y1="-394.42" x2="11.69" y2="1036.94"/><line class="cls-3" x1="-1412.44" y1="-401.64" x2="18.92" y2="1029.72"/><line class="cls-3" x1="-1405.22" y1="-408.87" x2="26.15" y2="1022.49"/><line class="cls-3" x1="-1397.99" y1="-416.1" x2="33.37" y2="1015.26"/><line class="cls-3" x1="-1390.76" y1="-423.32" x2="40.6" y2="1008.04"/><line class="cls-3" x1="-1383.54" y1="-430.55" x2="47.82" y2="1000.81"/><line class="cls-3" x1="-1376.31" y1="-437.77" x2="55.05" y2="993.59"/><line class="cls-3" x1="-1369.09" y1="-445" x2="62.27" y2="986.36"/><line class="cls-3" x1="-1361.86" y1="-452.22" x2="69.5" y2="979.14"/><line class="cls-3" x1="-1354.64" y1="-459.45" x2="76.73" y2="971.91"/><line class="cls-3" x1="-1347.41" y1="-466.68" x2="83.95" y2="964.68"/><line class="cls-3" x1="-1340.18" y1="-473.9" x2="91.18" y2="957.46"/><line class="cls-3" x1="-1332.96" y1="-481.13" x2="98.4" y2="950.23"/><line class="cls-3" x1="-1325.73" y1="-488.35" x2="105.63" y2="943.01"/><line class="cls-3" x1="-1318.51" y1="-495.58" x2="112.85" y2="935.78"/><line class="cls-3" x1="-1311.28" y1="-502.81" x2="120.08" y2="928.56"/><line class="cls-3" x1="-1304.05" y1="-510.03" x2="127.31" y2="921.33"/><line class="cls-3" x1="-1296.83" y1="-517.26" x2="134.53" y2="914.1"/><line class="cls-3" x1="-1289.6" y1="-524.48" x2="141.76" y2="906.88"/><line class="cls-3" x1="-1282.38" y1="-531.71" x2="148.98" y2="899.65"/><line class="cls-3" x1="-1275.15" y1="-538.93" x2="156.21" y2="892.43"/><line class="cls-3" x1="-1267.93" y1="-546.16" x2="163.43" y2="885.2"/><line class="cls-3" x1="-1260.7" y1="-553.39" x2="170.66" y2="877.98"/><line class="cls-3" x1="-1253.47" y1="-560.61" x2="177.89" y2="870.75"/><line class="cls-3" x1="-1246.25" y1="-567.84" x2="185.11" y2="863.52"/><line class="cls-3" x1="-1239.02" y1="-575.06" x2="192.34" y2="856.3"/><line class="cls-3" x1="-1231.8" y1="-582.29" x2="199.56" y2="849.07"/><line class="cls-3" x1="-1224.57" y1="-589.51" x2="206.79" y2="841.85"/><line class="cls-3" x1="-1217.35" y1="-596.74" x2="214.01" y2="834.62"/><line class="cls-3" x1="-1210.12" y1="-603.97" x2="221.24" y2="827.4"/><line class="cls-3" x1="-1202.89" y1="-611.19" x2="228.47" y2="820.17"/><line class="cls-3" x1="-1195.67" y1="-618.42" x2="235.69" y2="812.94"/><line class="cls-3" x1="-1188.44" y1="-625.64" x2="242.92" y2="805.72"/><line class="cls-3" x1="-1181.22" y1="-632.87" x2="250.14" y2="798.49"/><line class="cls-3" x1="-1173.99" y1="-640.09" x2="257.37" y2="791.27"/><line class="cls-3" x1="-1166.77" y1="-647.32" x2="264.59" y2="784.04"/><line class="cls-3" x1="-1159.54" y1="-654.55" x2="271.82" y2="776.82"/><line class="cls-3" x1="-1152.31" y1="-661.77" x2="279.05" y2="769.59"/><line class="cls-3" x1="-1145.09" y1="-669" x2="286.27" y2="762.36"/><line class="cls-3" x1="-1137.86" y1="-676.22" x2="293.5" y2="755.14"/><line class="cls-3" x1="-1130.64" y1="-683.45" x2="300.72" y2="747.91"/><line class="cls-3" x1="-1123.41" y1="-690.67" x2="307.95" y2="740.69"/><line class="cls-3" x1="-1116.19" y1="-697.9" x2="315.17" y2="733.46"/><line class="cls-3" x1="-1108.96" y1="-705.13" x2="322.4" y2="726.23"/><line class="cls-3" x1="-1096.05" y1="-706.67" x2="335.31" y2="724.69"/><line class="cls-3" x1="-1094.51" y1="-719.58" x2="336.85" y2="711.78"/><line class="cls-3" x1="-1087.28" y1="-726.8" x2="344.08" y2="704.56"/><line class="cls-3" x1="-1080.06" y1="-734.03" x2="351.3" y2="697.33"/><line class="cls-3" x1="-1072.83" y1="-741.25" x2="358.53" y2="690.11"/><line class="cls-3" x1="-1065.61" y1="-748.48" x2="365.75" y2="682.88"/><line class="cls-3" x1="-1058.38" y1="-755.71" x2="372.98" y2="675.65"/><line class="cls-3" x1="-1051.15" y1="-762.93" x2="380.21" y2="668.43"/><line class="cls-3" x1="-1043.93" y1="-770.16" x2="387.43" y2="661.2"/><line class="cls-3" x1="-1036.7" y1="-777.38" x2="394.66" y2="653.98"/><line class="cls-3" x1="-1029.48" y1="-784.61" x2="401.88" y2="646.75"/><line class="cls-3" x1="-1022.25" y1="-791.83" x2="409.11" y2="639.53"/><line class="cls-3" x1="-1015.03" y1="-799.06" x2="416.34" y2="632.3"/><line class="cls-3" x1="-1007.8" y1="-806.29" x2="423.56" y2="625.07"/><line class="cls-3" x1="-1000.57" y1="-813.51" x2="430.79" y2="617.85"/><line class="cls-3" x1="-993.35" y1="-820.74" x2="438.01" y2="610.62"/><line class="cls-3" x1="-986.12" y1="-827.96" x2="445.24" y2="603.4"/><line class="cls-3" x1="-978.9" y1="-835.19" x2="452.46" y2="596.17"/><line class="cls-3" x1="-971.67" y1="-842.41" x2="459.69" y2="588.95"/><line class="cls-3" x1="-964.45" y1="-849.64" x2="466.92" y2="581.72"/><line class="cls-3" x1="-957.22" y1="-856.87" x2="474.14" y2="574.49"/><line class="cls-3" x1="-949.99" y1="-864.09" x2="481.37" y2="567.27"/><line class="cls-3" x1="-942.77" y1="-871.32" x2="488.59" y2="560.04"/><line class="cls-3" x1="-935.54" y1="-878.54" x2="495.82" y2="552.82"/><line class="cls-3" x1="-928.32" y1="-885.77" x2="503.04" y2="545.59"/><line class="cls-3" x1="-921.09" y1="-892.99" x2="510.27" y2="538.37"/><line class="cls-3" x1="-913.87" y1="-900.22" x2="517.5" y2="531.14"/><line class="cls-3" x1="-906.64" y1="-907.45" x2="524.72" y2="523.91"/><line class="cls-3" x1="-899.41" y1="-914.67" x2="531.95" y2="516.69"/><line class="cls-3" x1="-892.19" y1="-921.9" x2="539.17" y2="509.46"/><line class="cls-3" x1="-884.96" y1="-929.12" x2="546.4" y2="502.24"/><line class="cls-3" x1="-877.74" y1="-936.35" x2="553.62" y2="495.01"/><line class="cls-3" x1="-870.51" y1="-943.57" x2="560.85" y2="487.79"/><line class="cls-3" x1="-863.29" y1="-950.8" x2="568.08" y2="480.56"/><line class="cls-3" x1="-856.06" y1="-958.03" x2="575.3" y2="473.33"/><line class="cls-3" x1="-848.83" y1="-965.25" x2="582.53" y2="466.11"/><line class="cls-3" x1="-841.61" y1="-972.48" x2="589.75" y2="458.88"/><line class="cls-3" x1="-834.38" y1="-979.7" x2="596.98" y2="451.66"/><line class="cls-3" x1="-827.16" y1="-986.93" x2="604.2" y2="444.43"/><line class="cls-3" x1="-819.93" y1="-994.16" x2="611.43" y2="437.21"/><line class="cls-3" x1="-812.7" y1="-1001.38" x2="618.66" y2="429.98"/><line class="cls-3" x1="-805.48" y1="-1008.61" x2="625.88" y2="422.75"/><line class="cls-3" x1="-798.25" y1="-1015.83" x2="633.11" y2="415.53"/><line class="cls-3" x1="-791.03" y1="-1023.06" x2="640.33" y2="408.3"/><line class="cls-3" x1="-783.8" y1="-1030.28" x2="647.56" y2="401.08"/><line class="cls-3" x1="-776.58" y1="-1037.51" x2="654.78" y2="393.85"/><line class="cls-3" x1="-769.35" y1="-1044.74" x2="662.01" y2="386.63"/></g></g><g id="Layer_2" data-name="Layer 2"><path class="cls-4" d="M143.71,97.79a73.72,73.72,0,0,1-17.16,29.27,28,28,0,0,0-37.06,21.06,74,74,0,0,1-33.93-.2,28,28,0,0,0-36.8-21.57A74,74,0,0,1,2,96.84,27.94,27.94,0,0,0,12,75.6,27.94,27.94,0,0,0,2.29,54.21,73.72,73.72,0,0,1,19.45,24.94a27.94,27.94,0,0,0,23.4-2A28,28,0,0,0,56.51,3.88,74.25,74.25,0,0,1,71,2c1.33,0,2.67,0,4,0a73.24,73.24,0,0,1,15.44,2,28,28,0,0,0,13.41,19.3,27.93,27.93,0,0,0,23.39,2.27A74,74,0,0,1,144,55.16a28,28,0,0,0-.28,42.63Z"/><path class="cls-5" d="M73,27.62A48.38,48.38,0,1,0,121.38,76,48.44,48.44,0,0,0,73,27.62Zm0,92.76A44.38,44.38,0,1,1,117.38,76,44.43,44.43,0,0,1,73,120.38Z"/><path class="cls-5" d="M75,2V19H71V2C72.33,2,73.67,2,75,2Z"/></g></svg>